<?xml version="1.0" encoding="UTF-8" standalone="no"?>
<!-- Created with Inkscape (http://www.inkscape.org/) -->

<svg
   version="1.1"
   id="svg2"
   width="100"
   height="100"
   viewBox="0 0 100 100"
   sodipodi:docname="icon-maintenance.svg"
   inkscape:version="1.1 (1:1.1+202105261517+ce6663b3b7)"
   xmlns:inkscape="http://www.inkscape.org/namespaces/inkscape"
   xmlns:sodipodi="http://sodipodi.sourceforge.net/DTD/sodipodi-0.dtd"
   xmlns="http://www.w3.org/2000/svg"
   xmlns:svg="http://www.w3.org/2000/svg">
  <defs
     id="defs6" />
  <sodipodi:namedview
     id="namedview4"
     pagecolor="#ffffff"
     bordercolor="#666666"
     borderopacity="1.0"
     inkscape:pageshadow="2"
     inkscape:pageopacity="0.0"
     inkscape:pagecheckerboard="0"
     showgrid="false"
     inkscape:zoom="7.2091744"
     inkscape:cx="74.072282"
     inkscape:cy="62.420463"
     inkscape:window-width="2560"
     inkscape:window-height="1416"
     inkscape:window-x="1920"
     inkscape:window-y="0"
     inkscape:window-maximized="1"
     inkscape:current-layer="g8" />
  <g
     inkscape:groupmode="layer"
     inkscape:label="Image"
     id="g8">
    <path
       style="fill:#000000;fill-opacity:1;stroke:#000000;stroke-width:0.999999;stroke-opacity:1"
       d="M 77.626442,97.968571 C 75.856009,97.482473 73.804197,96.359769 72.48819,95.15704 71.811091,94.538223 64.850044,86.547509 57.019203,77.3999 45.568344,64.023565 42.608477,60.689949 41.898403,60.369758 c -1.052762,-0.474719 -1.788255,-0.426903 -6.682551,0.434472 -3.157515,0.555706 -3.786884,0.596829 -7.678145,0.501687 -3.481013,-0.08511 -4.53016,-0.189619 -5.869218,-0.584648 C 17.642614,59.533618 14.405931,57.491485 10.707601,53.805678 5.9733023,49.087406 3.2494162,44.04141 2.0237694,37.718891 1.4967551,35.000271 1.4390472,30.495944 1.919335,29.567193 c 0.4836879,-0.93533 1.9927833,-2.194756 2.9475068,-2.459862 1.2243632,-0.339979 3.070591,-0.292666 4.0288882,0.103251 0.5495363,0.227037 2.93923,2.450414 7.115284,6.620079 l 6.287856,6.278231 6.607842,-2.224715 6.607841,-2.224713 2.182756,-6.563455 2.182753,-6.563453 -6.319735,-6.344451 C 30.084472,12.698659 27.129895,9.6249071 26.994601,9.3575482 26.649677,8.6759385 26.686175,5.4162157 27.048421,4.5509433 c 0.395667,-0.9451054 1.877636,-2.2614238 2.941176,-2.6124155 1.76184,-0.5814471 7.209243,0.043666 11.105191,1.2743691 9.095094,2.8730765 17.218505,10.8179521 19.522628,19.0935611 0.442663,1.589888 0.49623,2.304307 0.500612,6.676501 0.0045,4.446007 -0.05281,5.202987 -0.622906,8.234354 -0.644615,3.427607 -0.659925,4.632782 -0.07028,5.532674 0.183194,0.279588 7.896521,6.83606 17.140724,14.569944 9.244201,7.733881 17.269706,14.586749 17.83445,15.228596 2.227829,2.531982 3.004854,4.962333 3.008613,9.410225 0.0031,3.658168 -0.26317,4.942498 -1.58994,7.669096 -0.761069,1.56405 -1.29068,2.261854 -3.057916,4.029053 -1.767238,1.767198 -2.465057,2.296798 -4.029141,3.057851 -1.040443,0.506261 -2.488617,1.071688 -3.218165,1.25651 -1.693948,0.429139 -7.320457,0.427436 -8.887025,-0.0027 z"
       id="path848"
       sodipodi:nodetypes="ssssssssssssscccccssssssssssssssssss" />
  </g>
</svg>
