<?xml version="1.0" encoding="UTF-8" standalone="no"?>
<!-- Created with Inkscape (http://www.inkscape.org/) -->

<svg
   version="1.1"
   id="svg2"
   width="100"
   height="100"
   viewBox="0 0 100 99.999999"
   sodipodi:docname="icon-settings.svg"
   inkscape:version="1.1 (1:1.1+202105261517+ce6663b3b7)"
   xmlns:inkscape="http://www.inkscape.org/namespaces/inkscape"
   xmlns:sodipodi="http://sodipodi.sourceforge.net/DTD/sodipodi-0.dtd"
   xmlns="http://www.w3.org/2000/svg"
   xmlns:svg="http://www.w3.org/2000/svg">
  <defs
     id="defs6" />
  <sodipodi:namedview
     id="namedview4"
     pagecolor="#ffffff"
     bordercolor="#666666"
     borderopacity="1.0"
     inkscape:pageshadow="2"
     inkscape:pageopacity="0.0"
     inkscape:pagecheckerboard="0"
     showgrid="false"
     inkscape:zoom="5.8963216"
     inkscape:cx="88.529771"
     inkscape:cy="69.534878"
     inkscape:window-width="2560"
     inkscape:window-height="1416"
     inkscape:window-x="1920"
     inkscape:window-y="0"
     inkscape:window-maximized="1"
     inkscape:current-layer="g8" />
  <g
     inkscape:groupmode="layer"
     inkscape:label="Image"
     id="g8">
    <path
       id="path1578"
       style="fill:none;fill-opacity:1;stroke:#000000;stroke-width:7;stroke-miterlimit:4;stroke-dasharray:none;stroke-opacity:1"
       d="m 51.861095,3.6531071 c -1.265334,0.00579 -2.488353,0.1066634 -3.429542,0.1634437 -1.569259,0.094673 -3.825766,-0.070666 -5.118186,0.9435984 -1.298519,1.0190652 -1.236581,2.6519392 -1.799404,4.0539473 -0.835697,2.0813525 -2.925228,4.5255775 -4.97438,5.4695675 -2.411968,1.111084 -5.466711,0.939934 -7.936761,0.108071 -2.726309,-0.91817 -3.696983,-2.798435 -6.684458,-0.983343 -2.741707,1.665771 -8.469818,6.181956 -8.427591,9.733848 0.0171,1.4385 1.155342,2.659111 1.633711,3.964633 0.910212,2.484189 1.067898,5.777839 0.01034,8.229806 -2.082231,4.827415 -6.9694073,4.13823 -10.100155,7.223689 -2.265212,2.23247 -1.2943293,9.515117 -0.8365062,12.28688 0.5088454,3.080582 3.2205356,2.677167 5.5080796,3.566742 2.2896766,0.890488 4.8191096,2.91865 5.6978896,5.286476 0.929694,2.505318 0.818316,5.804315 -0.41401,8.219088 -0.622396,1.219429 -2.021817,2.216008 -2.104442,3.658288 -0.161254,2.814138 3.232467,6.088353 5.108809,7.867194 0.97003,0.919451 2.501137,2.61579 3.911885,2.669137 1.807101,0.0683 3.071395,-1.534617 4.577785,-2.230605 2.900153,-1.340154 5.95602,-1.328869 8.832669,0.04421 2.434528,1.161812 4.524901,3.409178 5.390173,5.978211 0.528369,1.56849 0.542304,4.038788 1.839598,5.212792 1.769877,1.60111 6.464897,1.220263 8.680823,1.108381 1.701275,-0.08567 4.29313,-0.04415 5.58311,-1.336133 1.050949,-1.052672 0.611281,-3.036213 1.042395,-4.376368 0.821674,-2.555007 3.111228,-5.316175 5.513439,-6.538654 2.659843,-1.353565 6.6375,-0.506464 9.123861,0.861432 1.145769,0.63075 2.022314,1.942488 3.385774,2.123878 3.670546,0.48899 8.965516,-5.990974 10.843322,-8.641097 1.660115,-2.342526 -0.730924,-4.425918 -1.82486,-6.402005 -1.097597,-1.982182 -1.567175,-5.103995 -0.906179,-7.319699 0.904603,-3.031194 3.325743,-5.522592 6.217303,-6.759704 1.815606,-0.777082 5.298664,-0.560046 5.70325,-2.983968 0.550324,-3.299165 1.261552,-11.05328 -1.591284,-13.49976 -0.999117,-0.856954 -2.895526,-0.751996 -4.128492,-1.16599 -2.336967,-0.784095 -4.456349,-2.654285 -5.56614,-4.856877 -1.185405,-2.353194 -1.293557,-5.481473 -0.295658,-7.921675 0.862832,-2.109827 2.998572,-3.707316 1.746703,-6.085386 -1.19699,-2.273504 -6.175136,-8.095044 -8.984069,-8.128883 -1.571393,-0.01893 -2.874663,1.136436 -4.267388,1.691155 C 70.35322,15.870866 67.008598,15.81965 64.590534,14.691831 62.2523,13.601325 60.335604,11.72532 59.223984,9.3964233 58.563878,8.0135277 58.603069,6.1736635 57.425896,5.06069 56.195674,3.8977092 53.969985,3.6433885 51.861095,3.6531071 Z M 50.003185,31.800307 A 18.201789,18.199961 0 0 1 68.204905,50.000198 18.201789,18.199961 0 0 1 50.003185,68.200087 18.201789,18.199961 0 0 1 31.801467,50.000198 18.201789,18.199961 0 0 1 50.003185,31.800307 Z" />
  </g>
</svg>
