<?xml version="1.0" encoding="UTF-8" standalone="no"?>
<!-- Created with Inkscape (http://www.inkscape.org/) -->

<svg
   version="1.1"
   id="svg2"
   width="100"
   height="100"
   viewBox="0 0 100 99.999999"
   sodipodi:docname="icon-admin.svg"
   inkscape:version="1.1 (1:1.1+202105261517+ce6663b3b7)"
   xmlns:inkscape="http://www.inkscape.org/namespaces/inkscape"
   xmlns:sodipodi="http://sodipodi.sourceforge.net/DTD/sodipodi-0.dtd"
   xmlns="http://www.w3.org/2000/svg"
   xmlns:svg="http://www.w3.org/2000/svg">
  <defs
     id="defs6" />
  <sodipodi:namedview
     id="namedview4"
     pagecolor="#ffffff"
     bordercolor="#666666"
     borderopacity="1.0"
     inkscape:pageshadow="2"
     inkscape:pageopacity="0.0"
     inkscape:pagecheckerboard="0"
     showgrid="false"
     inkscape:zoom="4.169329"
     inkscape:cx="60.201534"
     inkscape:cy="49.648277"
     inkscape:window-width="2560"
     inkscape:window-height="1416"
     inkscape:window-x="1920"
     inkscape:window-y="0"
     inkscape:window-maximized="1"
     inkscape:current-layer="g8" />
  <g
     inkscape:groupmode="layer"
     inkscape:label="Image"
     id="g8">
    <path
       id="path1578"
       style="fill:none;fill-opacity:1;stroke:#000000;stroke-width:3.5;stroke-miterlimit:4;stroke-dasharray:none;stroke-opacity:1"
       d="m 50.959323,24.156379 c -0.651033,0.003 -1.280297,0.05488 -1.764554,0.08409 -0.80741,0.0487 -1.968416,-0.03636 -2.633387,0.485453 -0.668109,0.524277 -0.63624,1.364341 -0.925825,2.085631 -0.429976,1.070792 -1.505079,2.32827 -2.5594,2.813924 -1.240997,0.571619 -2.812711,0.483568 -4.083591,0.0556 -1.402731,-0.472371 -1.902156,-1.439709 -3.439263,-0.5059 -1.41065,0.856988 -4.357855,3.180426 -4.336132,5.007766 0.0088,0.740064 0.594441,1.368031 0.84057,2.039682 0.468323,1.278039 0.549452,2.972521 0.0053,4.233982 -1.071341,2.483557 -3.58587,2.128993 -5.196691,3.716367 -1.165488,1.148537 -0.665954,4.895235 -0.430398,6.321222 0.261811,1.584865 1.65702,1.37732 2.833996,1.834979 1.178078,0.458129 2.47951,1.501556 2.931657,2.71973 0.478346,1.288909 0.421039,2.986142 -0.213015,4.228468 -0.32023,0.627359 -1.040259,1.140069 -1.082768,1.882077 -0.08297,1.447788 1.663158,3.132271 2.628565,4.04743 0.499096,0.473029 1.286877,1.345744 2.012726,1.373189 0.929782,0.03514 1.580285,-0.789513 2.355347,-1.147578 1.492174,-0.689468 3.064469,-0.683662 4.544552,0.02275 1.252605,0.597717 2.328135,1.753917 2.77333,3.075606 0.271855,0.80694 0.279022,2.077832 0.946504,2.681824 0.910632,0.823722 3.326296,0.627786 4.466423,0.570228 0.875336,-0.04409 2.208885,-0.02274 2.8726,-0.687403 0.540731,-0.541567 0.314514,-1.562037 0.536332,-2.251506 0.422763,-1.314473 1.600773,-2.735009 2.836754,-3.363937 1.368531,-0.696367 3.415102,-0.26056 4.694374,0.443181 0.589518,0.324501 1.040512,0.99935 1.742034,1.09267 1.888557,0.25157 4.612905,-3.082172 5.579064,-4.445579 0.854159,-1.205158 -0.37607,-2.276999 -0.93892,-3.293635 -0.564728,-1.019772 -0.806334,-2.625849 -0.466244,-3.765761 0.465436,-1.559456 1.711152,-2.841204 3.198907,-3.47766 0.934156,-0.399785 2.726246,-0.288127 2.934415,-1.53516 0.283148,-1.697319 0.649088,-5.686573 -0.818745,-6.945212 -0.514058,-0.440877 -1.489792,-0.386879 -2.124175,-0.599866 -1.202409,-0.403393 -2.292865,-1.365548 -2.86387,-2.498714 -0.609907,-1.210646 -0.665557,-2.82005 -0.152122,-4.075459 0.44394,-1.085441 1.542813,-1.9073 0.898711,-3.130744 -0.615871,-1.169648 -3.17721,-4.164652 -4.62245,-4.182061 -0.808511,-0.0097 -1.479064,0.584662 -2.195641,0.870047 -1.27049,0.505949 -2.991351,0.4796 -4.235487,-0.100628 C 56.305748,29.27444 55.319575,28.309293 54.747629,27.111147 54.407996,26.39969 54.42816,25.453136 53.822487,24.880545 53.189514,24.282228 52.04436,24.151388 50.959302,24.156387 Z M 50.003398,38.63725 a 9.3651157,9.3633212 0 0 1 9.36508,9.363285 9.3651157,9.3633212 0 0 1 -9.36508,9.363284 9.3651157,9.3633212 0 0 1 -9.365075,-9.363284 9.3651157,9.3633212 0 0 1 9.365075,-9.363285 z" />
    <path
       id="path1496"
       style="fill:none;stroke:#000000;stroke-width:7;stroke-linecap:butt;stroke-linejoin:miter;stroke-miterlimit:4;stroke-dasharray:none;stroke-opacity:1"
       d="M 90.277719,63.58612 89.442725,12.714007 C 73.926281,15.275679 62.035492,10.329197 50.000508,5.6813225 37.965524,10.329198 26.074735,15.275679 10.55829,12.714007 L 9.7232966,63.58612 C 16.136619,75.510449 38.367885,91.309332 50.000508,94.436373 60.194885,91.471075 83.465689,77.328703 90.277719,63.58612 Z"
       sodipodi:nodetypes="ccccccc" />
  </g>
</svg>
